<?xml version="1.0" encoding="UTF-8"?> <svg xmlns="http://www.w3.org/2000/svg" width="200" height="200" viewBox="0 0 200 200" fill="none"><rect x="140" y="60" width="20" height="20" fill="#FFA600"></rect><rect x="61" width="80" height="20" fill="black"></rect><rect x="61" y="20" width="80" height="20" fill="#FFD900"></rect><rect x="60" y="40" width="80" height="20" fill="#FFA600"></rect><rect x="40" y="40" width="20" height="20" fill="#FFD900"></rect><rect x="140" y="40" width="20" height="20" fill="#FFD900"></rect><rect x="160" y="60" width="20" height="20" fill="#FFD900"></rect><rect x="20" y="60" width="120" height="20" fill="#FFD900"></rect><rect x="20" y="100" width="160" height="20" fill="#FFD900"></rect><rect x="20" y="80" width="160" height="20" fill="#FFD900"></rect><rect x="20" y="120" width="160" height="20" fill="#FFD900"></rect><rect x="40" y="140" width="120" height="20" fill="#FFD900"></rect><rect x="60" y="160" width="80" height="20" fill="#FFD900"></rect><rect x="20" y="140" width="20" height="20" fill="black"></rect><rect x="160" y="140" width="20" height="20" fill="black"></rect><rect x="19" y="40" width="21" height="20" fill="black"></rect><rect x="160" y="40" width="20" height="20" fill="black"></rect><rect y="60" width="20" height="20" fill="black"></rect><rect x="180" y="60" width="20" height="20" fill="black"></rect><rect y="100" width="20" height="20" fill="black"></rect><rect x="180" y="100" width="20" height="20" fill="black"></rect><rect y="80" width="20" height="20" fill="black"></rect><rect x="140" y="80" width="20" height="60" fill="white"></rect><rect x="40" y="60" width="20" height="80" fill="#FFA600"></rect><rect x="60" y="140" width="80" height="20" fill="#FFA600"></rect><rect x="180" y="80" width="20" height="20" fill="black"></rect><rect y="120" width="20" height="20" fill="black"></rect><rect x="180" y="120" width="20" height="20" fill="black"></rect><rect x="140" y="60" width="20" height="20" fill="#FFA600"></rect><rect x="60" y="120" width="20" height="20" fill="#FFA600"></rect><rect x="60" y="60" width="20" height="20" fill="#FFA600"></rect><rect x="120" y="120" width="20" height="20" fill="white"></rect><rect x="40" y="160" width="20" height="20" fill="black"></rect><rect x="140" y="160" width="20" height="20" fill="black"></rect><rect x="40" y="20" width="21" height="20" fill="black"></rect><rect x="140" y="20" width="20" height="20" fill="black"></rect><rect x="60" y="180" width="80" height="20" fill="black"></rect></svg> 