<?xml version="1.0" encoding="UTF-8"?> <svg xmlns="http://www.w3.org/2000/svg" width="2540" height="16" viewBox="0 0 2540 16" fill="none"><g clip-path="url(#clip0_902_3176)"><rect width="2540" height="16" fill="white"></rect><rect width="16" height="16" fill="black"></rect><rect x="1" y="1" width="14" height="14" fill="#FCB5A8"></rect><path d="M12 1H13V7H15V8H10V15H9V8H7V15H6V8H1V7H3V1H4V7H12V1Z" fill="black"></path><path d="M5 2H11V6H5V2Z" fill="#FC8E2E"></path><path d="M2 9H5V14H2V9Z" fill="#FC8E2E"></path><path d="M14 9H11V14H14V9Z" fill="#FC8E2E"></path><rect x="1270" width="16" height="16" fill="black"></rect><rect x="1271" y="1" width="14" height="14" fill="#FCB5A8"></rect><path d="M1282 1H1283V7H1285V8H1280V15H1279V8H1277V15H1276V8H1271V7H1273V1H1274V7H1282V1Z" fill="black"></path><path d="M1275 2H1281V6H1275V2Z" fill="#FC8E2E"></path><path d="M1272 9H1275V14H1272V9Z" fill="#FC8E2E"></path><path d="M1284 9H1281V14H1284V9Z" fill="#FC8E2E"></path><rect x="127" width="16" height="16" fill="black"></rect><rect x="128" y="1" width="14" height="14" fill="#FCB5A8"></rect><path d="M139 1H140V7H142V8H137V15H136V8H134V15H133V8H128V7H130V1H131V7H139V1Z" fill="black"></path><path d="M132 2H138V6H132V2Z" fill="#FC8E2E"></path><path d="M129 9H132V14H129V9Z" fill="#FC8E2E"></path><path d="M141 9H138V14H141V9Z" fill="#FC8E2E"></path><rect x="1397" width="16" height="16" fill="black"></rect><rect x="1398" y="1" width="14" height="14" fill="#FCB5A8"></rect><path d="M1409 1H1410V7H1412V8H1407V15H1406V8H1404V15H1403V8H1398V7H1400V1H1401V7H1409V1Z" fill="black"></path><path d="M1402 2H1408V6H1402V2Z" fill="#FC8E2E"></path><path d="M1399 9H1402V14H1399V9Z" fill="#FC8E2E"></path><path d="M1411 9H1408V14H1411V9Z" fill="#FC8E2E"></path><rect x="254" width="16" height="16" fill="black"></rect><rect x="255" y="1" width="14" height="14" fill="#FCB5A8"></rect><path d="M266 1H267V7H269V8H264V15H263V8H261V15H260V8H255V7H257V1H258V7H266V1Z" fill="black"></path><path d="M259 2H265V6H259V2Z" fill="#FC8E2E"></path><path d="M256 9H259V14H256V9Z" fill="#FC8E2E"></path><path d="M268 9H265V14H268V9Z" fill="#FC8E2E"></path><rect x="1524" width="16" height="16" fill="black"></rect><rect x="1525" y="1" width="14" height="14" fill="#FCB5A8"></rect><path d="M1536 1H1537V7H1539V8H1534V15H1533V8H1531V15H1530V8H1525V7H1527V1H1528V7H1536V1Z" fill="black"></path><path d="M1529 2H1535V6H1529V2Z" fill="#FC8E2E"></path><path d="M1526 9H1529V14H1526V9Z" fill="#FC8E2E"></path><path d="M1538 9H1535V14H1538V9Z" fill="#FC8E2E"></path><rect x="381" width="16" height="16" fill="black"></rect><rect x="382" y="1" width="14" height="14" fill="#FCB5A8"></rect><path d="M393 1H394V7H396V8H391V15H390V8H388V15H387V8H382V7H384V1H385V7H393V1Z" fill="black"></path><path d="M386 2H392V6H386V2Z" fill="#FC8E2E"></path><path d="M383 9H386V14H383V9Z" fill="#FC8E2E"></path><path d="M395 9H392V14H395V9Z" fill="#FC8E2E"></path><rect x="1651" width="16" height="16" fill="black"></rect><rect x="1652" y="1" width="14" height="14" fill="#FCB5A8"></rect><path d="M1663 1H1664V7H1666V8H1661V15H1660V8H1658V15H1657V8H1652V7H1654V1H1655V7H1663V1Z" fill="black"></path><path d="M1656 2H1662V6H1656V2Z" fill="#FC8E2E"></path><path d="M1653 9H1656V14H1653V9Z" fill="#FC8E2E"></path><path d="M1665 9H1662V14H1665V9Z" fill="#FC8E2E"></path><rect x="508" width="16" height="16" fill="black"></rect><rect x="509" y="1" width="14" height="14" fill="#FCB5A8"></rect><path d="M520 1H521V7H523V8H518V15H517V8H515V15H514V8H509V7H511V1H512V7H520V1Z" fill="black"></path><path d="M513 2H519V6H513V2Z" fill="#FC8E2E"></path><path d="M510 9H513V14H510V9Z" fill="#FC8E2E"></path><path d="M522 9H519V14H522V9Z" fill="#FC8E2E"></path><rect x="1778" width="16" height="16" fill="black"></rect><rect x="1779" y="1" width="14" height="14" fill="#FCB5A8"></rect><path d="M1790 1H1791V7H1793V8H1788V15H1787V8H1785V15H1784V8H1779V7H1781V1H1782V7H1790V1Z" fill="black"></path><path d="M1783 2H1789V6H1783V2Z" fill="#FC8E2E"></path><path d="M1780 9H1783V14H1780V9Z" fill="#FC8E2E"></path><path d="M1792 9H1789V14H1792V9Z" fill="#FC8E2E"></path><rect x="635" width="16" height="16" fill="black"></rect><rect x="636" y="1" width="14" height="14" fill="#FCB5A8"></rect><path d="M647 1H648V7H650V8H645V15H644V8H642V15H641V8H636V7H638V1H639V7H647V1Z" fill="black"></path><path d="M640 2H646V6H640V2Z" fill="#FC8E2E"></path><path d="M637 9H640V14H637V9Z" fill="#FC8E2E"></path><path d="M649 9H646V14H649V9Z" fill="#FC8E2E"></path><rect x="1905" width="16" height="16" fill="black"></rect><rect x="1906" y="1" width="14" height="14" fill="#FCB5A8"></rect><path d="M1917 1H1918V7H1920V8H1915V15H1914V8H1912V15H1911V8H1906V7H1908V1H1909V7H1917V1Z" fill="black"></path><path d="M1910 2H1916V6H1910V2Z" fill="#FC8E2E"></path><path d="M1907 9H1910V14H1907V9Z" fill="#FC8E2E"></path><path d="M1919 9H1916V14H1919V9Z" fill="#FC8E2E"></path><rect x="762" width="16" height="16" fill="black"></rect><rect x="763" y="1" width="14" height="14" fill="#FCB5A8"></rect><path d="M774 1H775V7H777V8H772V15H771V8H769V15H768V8H763V7H765V1H766V7H774V1Z" fill="black"></path><path d="M767 2H773V6H767V2Z" fill="#FC8E2E"></path><path d="M764 9H767V14H764V9Z" fill="#FC8E2E"></path><path d="M776 9H773V14H776V9Z" fill="#FC8E2E"></path><rect x="2032" width="16" height="16" fill="black"></rect><rect x="2033" y="1" width="14" height="14" fill="#FCB5A8"></rect><path d="M2044 1H2045V7H2047V8H2042V15H2041V8H2039V15H2038V8H2033V7H2035V1H2036V7H2044V1Z" fill="black"></path><path d="M2037 2H2043V6H2037V2Z" fill="#FC8E2E"></path><path d="M2034 9H2037V14H2034V9Z" fill="#FC8E2E"></path><path d="M2046 9H2043V14H2046V9Z" fill="#FC8E2E"></path><rect x="889" width="16" height="16" fill="black"></rect><rect x="890" y="1" width="14" height="14" fill="#FCB5A8"></rect><path d="M901 1H902V7H904V8H899V15H898V8H896V15H895V8H890V7H892V1H893V7H901V1Z" fill="black"></path><path d="M894 2H900V6H894V2Z" fill="#FC8E2E"></path><path d="M891 9H894V14H891V9Z" fill="#FC8E2E"></path><path d="M903 9H900V14H903V9Z" fill="#FC8E2E"></path><rect x="2159" width="16" height="16" fill="black"></rect><rect x="2160" y="1" width="14" height="14" fill="#FCB5A8"></rect><path d="M2171 1H2172V7H2174V8H2169V15H2168V8H2166V15H2165V8H2160V7H2162V1H2163V7H2171V1Z" fill="black"></path><path d="M2164 2H2170V6H2164V2Z" fill="#FC8E2E"></path><path d="M2161 9H2164V14H2161V9Z" fill="#FC8E2E"></path><path d="M2173 9H2170V14H2173V9Z" fill="#FC8E2E"></path><rect x="1016" width="16" height="16" fill="black"></rect><rect x="1017" y="1" width="14" height="14" fill="#FCB5A8"></rect><path d="M1028 1H1029V7H1031V8H1026V15H1025V8H1023V15H1022V8H1017V7H1019V1H1020V7H1028V1Z" fill="black"></path><path d="M1021 2H1027V6H1021V2Z" fill="#FC8E2E"></path><path d="M1018 9H1021V14H1018V9Z" fill="#FC8E2E"></path><path d="M1030 9H1027V14H1030V9Z" fill="#FC8E2E"></path><rect x="2286" width="16" height="16" fill="black"></rect><rect x="2287" y="1" width="14" height="14" fill="#FCB5A8"></rect><path d="M2298 1H2299V7H2301V8H2296V15H2295V8H2293V15H2292V8H2287V7H2289V1H2290V7H2298V1Z" fill="black"></path><path d="M2291 2H2297V6H2291V2Z" fill="#FC8E2E"></path><path d="M2288 9H2291V14H2288V9Z" fill="#FC8E2E"></path><path d="M2300 9H2297V14H2300V9Z" fill="#FC8E2E"></path><rect x="1143" width="16" height="16" fill="black"></rect><rect x="1144" y="1" width="14" height="14" fill="#FCB5A8"></rect><path d="M1155 1H1156V7H1158V8H1153V15H1152V8H1150V15H1149V8H1144V7H1146V1H1147V7H1155V1Z" fill="black"></path><path d="M1148 2H1154V6H1148V2Z" fill="#FC8E2E"></path><path d="M1145 9H1148V14H1145V9Z" fill="#FC8E2E"></path><path d="M1157 9H1154V14H1157V9Z" fill="#FC8E2E"></path><rect x="2413" width="16" height="16" fill="black"></rect><rect x="2414" y="1" width="14" height="14" fill="#FCB5A8"></rect><path d="M2425 1H2426V7H2428V8H2423V15H2422V8H2420V15H2419V8H2414V7H2416V1H2417V7H2425V1Z" fill="black"></path><path d="M2418 2H2424V6H2418V2Z" fill="#FC8E2E"></path><path d="M2415 9H2418V14H2415V9Z" fill="#FC8E2E"></path><path d="M2427 9H2424V14H2427V9Z" fill="#FC8E2E"></path><rect x="63" width="16" height="16" fill="black"></rect><rect x="64" y="1" width="14" height="14" fill="#FCB5A8"></rect><path d="M75 1H76V7H78V8H73V15H72V8H70V15H69V8H64V7H66V1H67V7H75V1Z" fill="black"></path><path d="M68 2H74V6H68V2Z" fill="#FC8E2E"></path><path d="M65 9H68V14H65V9Z" fill="#FC8E2E"></path><path d="M77 9H74V14H77V9Z" fill="#FC8E2E"></path><rect x="1333" width="16" height="16" fill="black"></rect><rect x="1334" y="1" width="14" height="14" fill="#FCB5A8"></rect><path d="M1345 1H1346V7H1348V8H1343V15H1342V8H1340V15H1339V8H1334V7H1336V1H1337V7H1345V1Z" fill="black"></path><path d="M1338 2H1344V6H1338V2Z" fill="#FC8E2E"></path><path d="M1335 9H1338V14H1335V9Z" fill="#FC8E2E"></path><path d="M1347 9H1344V14H1347V9Z" fill="#FC8E2E"></path><rect x="190" width="16" height="16" fill="black"></rect><rect x="191" y="1" width="14" height="14" fill="#FCB5A8"></rect><path d="M202 1H203V7H205V8H200V15H199V8H197V15H196V8H191V7H193V1H194V7H202V1Z" fill="black"></path><path d="M195 2H201V6H195V2Z" fill="#FC8E2E"></path><path d="M192 9H195V14H192V9Z" fill="#FC8E2E"></path><path d="M204 9H201V14H204V9Z" fill="#FC8E2E"></path><rect x="1460" width="16" height="16" fill="black"></rect><rect x="1461" y="1" width="14" height="14" fill="#FCB5A8"></rect><path d="M1472 1H1473V7H1475V8H1470V15H1469V8H1467V15H1466V8H1461V7H1463V1H1464V7H1472V1Z" fill="black"></path><path d="M1465 2H1471V6H1465V2Z" fill="#FC8E2E"></path><path d="M1462 9H1465V14H1462V9Z" fill="#FC8E2E"></path><path d="M1474 9H1471V14H1474V9Z" fill="#FC8E2E"></path><rect x="317" width="16" height="16" fill="black"></rect><rect x="318" y="1" width="14" height="14" fill="#FCB5A8"></rect><path d="M329 1H330V7H332V8H327V15H326V8H324V15H323V8H318V7H320V1H321V7H329V1Z" fill="black"></path><path d="M322 2H328V6H322V2Z" fill="#FC8E2E"></path><path d="M319 9H322V14H319V9Z" fill="#FC8E2E"></path><path d="M331 9H328V14H331V9Z" fill="#FC8E2E"></path><rect x="1587" width="16" height="16" fill="black"></rect><rect x="1588" y="1" width="14" height="14" fill="#FCB5A8"></rect><path d="M1599 1H1600V7H1602V8H1597V15H1596V8H1594V15H1593V8H1588V7H1590V1H1591V7H1599V1Z" fill="black"></path><path d="M1592 2H1598V6H1592V2Z" fill="#FC8E2E"></path><path d="M1589 9H1592V14H1589V9Z" fill="#FC8E2E"></path><path d="M1601 9H1598V14H1601V9Z" fill="#FC8E2E"></path><rect x="444" width="16" height="16" fill="black"></rect><rect x="445" y="1" width="14" height="14" fill="#FCB5A8"></rect><path d="M456 1H457V7H459V8H454V15H453V8H451V15H450V8H445V7H447V1H448V7H456V1Z" fill="black"></path><path d="M449 2H455V6H449V2Z" fill="#FC8E2E"></path><path d="M446 9H449V14H446V9Z" fill="#FC8E2E"></path><path d="M458 9H455V14H458V9Z" fill="#FC8E2E"></path><rect x="1714" width="16" height="16" fill="black"></rect><rect x="1715" y="1" width="14" height="14" fill="#FCB5A8"></rect><path d="M1726 1H1727V7H1729V8H1724V15H1723V8H1721V15H1720V8H1715V7H1717V1H1718V7H1726V1Z" fill="black"></path><path d="M1719 2H1725V6H1719V2Z" fill="#FC8E2E"></path><path d="M1716 9H1719V14H1716V9Z" fill="#FC8E2E"></path><path d="M1728 9H1725V14H1728V9Z" fill="#FC8E2E"></path><rect x="571" width="16" height="16" fill="black"></rect><rect x="572" y="1" width="14" height="14" fill="#FCB5A8"></rect><path d="M583 1H584V7H586V8H581V15H580V8H578V15H577V8H572V7H574V1H575V7H583V1Z" fill="black"></path><path d="M576 2H582V6H576V2Z" fill="#FC8E2E"></path><path d="M573 9H576V14H573V9Z" fill="#FC8E2E"></path><path d="M585 9H582V14H585V9Z" fill="#FC8E2E"></path><rect x="1841" width="16" height="16" fill="black"></rect><rect x="1842" y="1" width="14" height="14" fill="#FCB5A8"></rect><path d="M1853 1H1854V7H1856V8H1851V15H1850V8H1848V15H1847V8H1842V7H1844V1H1845V7H1853V1Z" fill="black"></path><path d="M1846 2H1852V6H1846V2Z" fill="#FC8E2E"></path><path d="M1843 9H1846V14H1843V9Z" fill="#FC8E2E"></path><path d="M1855 9H1852V14H1855V9Z" fill="#FC8E2E"></path><rect x="698" width="16" height="16" fill="black"></rect><rect x="699" y="1" width="14" height="14" fill="#FCB5A8"></rect><path d="M710 1H711V7H713V8H708V15H707V8H705V15H704V8H699V7H701V1H702V7H710V1Z" fill="black"></path><path d="M703 2H709V6H703V2Z" fill="#FC8E2E"></path><path d="M700 9H703V14H700V9Z" fill="#FC8E2E"></path><path d="M712 9H709V14H712V9Z" fill="#FC8E2E"></path><rect x="1968" width="16" height="16" fill="black"></rect><rect x="1969" y="1" width="14" height="14" fill="#FCB5A8"></rect><path d="M1980 1H1981V7H1983V8H1978V15H1977V8H1975V15H1974V8H1969V7H1971V1H1972V7H1980V1Z" fill="black"></path><path d="M1973 2H1979V6H1973V2Z" fill="#FC8E2E"></path><path d="M1970 9H1973V14H1970V9Z" fill="#FC8E2E"></path><path d="M1982 9H1979V14H1982V9Z" fill="#FC8E2E"></path><rect x="825" width="16" height="16" fill="black"></rect><rect x="826" y="1" width="14" height="14" fill="#FCB5A8"></rect><path d="M837 1H838V7H840V8H835V15H834V8H832V15H831V8H826V7H828V1H829V7H837V1Z" fill="black"></path><path d="M830 2H836V6H830V2Z" fill="#FC8E2E"></path><path d="M827 9H830V14H827V9Z" fill="#FC8E2E"></path><path d="M839 9H836V14H839V9Z" fill="#FC8E2E"></path><rect x="2095" width="16" height="16" fill="black"></rect><rect x="2096" y="1" width="14" height="14" fill="#FCB5A8"></rect><path d="M2107 1H2108V7H2110V8H2105V15H2104V8H2102V15H2101V8H2096V7H2098V1H2099V7H2107V1Z" fill="black"></path><path d="M2100 2H2106V6H2100V2Z" fill="#FC8E2E"></path><path d="M2097 9H2100V14H2097V9Z" fill="#FC8E2E"></path><path d="M2109 9H2106V14H2109V9Z" fill="#FC8E2E"></path><rect x="952" width="16" height="16" fill="black"></rect><rect x="953" y="1" width="14" height="14" fill="#FCB5A8"></rect><path d="M964 1H965V7H967V8H962V15H961V8H959V15H958V8H953V7H955V1H956V7H964V1Z" fill="black"></path><path d="M957 2H963V6H957V2Z" fill="#FC8E2E"></path><path d="M954 9H957V14H954V9Z" fill="#FC8E2E"></path><path d="M966 9H963V14H966V9Z" fill="#FC8E2E"></path><rect x="2222" width="16" height="16" fill="black"></rect><rect x="2223" y="1" width="14" height="14" fill="#FCB5A8"></rect><path d="M2234 1H2235V7H2237V8H2232V15H2231V8H2229V15H2228V8H2223V7H2225V1H2226V7H2234V1Z" fill="black"></path><path d="M2227 2H2233V6H2227V2Z" fill="#FC8E2E"></path><path d="M2224 9H2227V14H2224V9Z" fill="#FC8E2E"></path><path d="M2236 9H2233V14H2236V9Z" fill="#FC8E2E"></path><rect x="1079" width="16" height="16" fill="black"></rect><rect x="1080" y="1" width="14" height="14" fill="#FCB5A8"></rect><path d="M1091 1H1092V7H1094V8H1089V15H1088V8H1086V15H1085V8H1080V7H1082V1H1083V7H1091V1Z" fill="black"></path><path d="M1084 2H1090V6H1084V2Z" fill="#FC8E2E"></path><path d="M1081 9H1084V14H1081V9Z" fill="#FC8E2E"></path><path d="M1093 9H1090V14H1093V9Z" fill="#FC8E2E"></path><rect x="2349" width="16" height="16" fill="black"></rect><rect x="2350" y="1" width="14" height="14" fill="#FCB5A8"></rect><path d="M2361 1H2362V7H2364V8H2359V15H2358V8H2356V15H2355V8H2350V7H2352V1H2353V7H2361V1Z" fill="black"></path><path d="M2354 2H2360V6H2354V2Z" fill="#FC8E2E"></path><path d="M2351 9H2354V14H2351V9Z" fill="#FC8E2E"></path><path d="M2363 9H2360V14H2363V9Z" fill="#FC8E2E"></path><rect x="1206" width="16" height="16" fill="black"></rect><rect x="1207" y="1" width="14" height="14" fill="#FCB5A8"></rect><path d="M1218 1H1219V7H1221V8H1216V15H1215V8H1213V15H1212V8H1207V7H1209V1H1210V7H1218V1Z" fill="black"></path><path d="M1211 2H1217V6H1211V2Z" fill="#FC8E2E"></path><path d="M1208 9H1211V14H1208V9Z" fill="#FC8E2E"></path><path d="M1220 9H1217V14H1220V9Z" fill="#FC8E2E"></path><rect x="2476" width="16" height="16" fill="black"></rect><rect x="2477" y="1" width="14" height="14" fill="#FCB5A8"></rect><path d="M2488 1H2489V7H2491V8H2486V15H2485V8H2483V15H2482V8H2477V7H2479V1H2480V7H2488V1Z" fill="black"></path><path d="M2481 2H2487V6H2481V2Z" fill="#FC8E2E"></path><path d="M2478 9H2481V14H2478V9Z" fill="#FC8E2E"></path><path d="M2490 9H2487V14H2490V9Z" fill="#FC8E2E"></path><rect x="32" width="16" height="16" fill="black"></rect><rect x="33" y="1" width="14" height="14" fill="#FCB5A8"></rect><path d="M44 1H45V7H47V8H42V15H41V8H39V15H38V8H33V7H35V1H36V7H44V1Z" fill="black"></path><path d="M37 2H43V6H37V2Z" fill="#FC8E2E"></path><path d="M34 9H37V14H34V9Z" fill="#FC8E2E"></path><path d="M46 9H43V14H46V9Z" fill="#FC8E2E"></path><rect x="1302" width="16" height="16" fill="black"></rect><rect x="1303" y="1" width="14" height="14" fill="#FCB5A8"></rect><path d="M1314 1H1315V7H1317V8H1312V15H1311V8H1309V15H1308V8H1303V7H1305V1H1306V7H1314V1Z" fill="black"></path><path d="M1307 2H1313V6H1307V2Z" fill="#FC8E2E"></path><path d="M1304 9H1307V14H1304V9Z" fill="#FC8E2E"></path><path d="M1316 9H1313V14H1316V9Z" fill="#FC8E2E"></path><rect x="159" width="16" height="16" fill="black"></rect><rect x="160" y="1" width="14" height="14" fill="#FCB5A8"></rect><path d="M171 1H172V7H174V8H169V15H168V8H166V15H165V8H160V7H162V1H163V7H171V1Z" fill="black"></path><path d="M164 2H170V6H164V2Z" fill="#FC8E2E"></path><path d="M161 9H164V14H161V9Z" fill="#FC8E2E"></path><path d="M173 9H170V14H173V9Z" fill="#FC8E2E"></path><rect x="1429" width="16" height="16" fill="black"></rect><rect x="1430" y="1" width="14" height="14" fill="#FCB5A8"></rect><path d="M1441 1H1442V7H1444V8H1439V15H1438V8H1436V15H1435V8H1430V7H1432V1H1433V7H1441V1Z" fill="black"></path><path d="M1434 2H1440V6H1434V2Z" fill="#FC8E2E"></path><path d="M1431 9H1434V14H1431V9Z" fill="#FC8E2E"></path><path d="M1443 9H1440V14H1443V9Z" fill="#FC8E2E"></path><rect x="286" width="16" height="16" fill="black"></rect><rect x="287" y="1" width="14" height="14" fill="#FCB5A8"></rect><path d="M298 1H299V7H301V8H296V15H295V8H293V15H292V8H287V7H289V1H290V7H298V1Z" fill="black"></path><path d="M291 2H297V6H291V2Z" fill="#FC8E2E"></path><path d="M288 9H291V14H288V9Z" fill="#FC8E2E"></path><path d="M300 9H297V14H300V9Z" fill="#FC8E2E"></path><rect x="1556" width="16" height="16" fill="black"></rect><rect x="1557" y="1" width="14" height="14" fill="#FCB5A8"></rect><path d="M1568 1H1569V7H1571V8H1566V15H1565V8H1563V15H1562V8H1557V7H1559V1H1560V7H1568V1Z" fill="black"></path><path d="M1561 2H1567V6H1561V2Z" fill="#FC8E2E"></path><path d="M1558 9H1561V14H1558V9Z" fill="#FC8E2E"></path><path d="M1570 9H1567V14H1570V9Z" fill="#FC8E2E"></path><rect x="413" width="16" height="16" fill="black"></rect><rect x="414" y="1" width="14" height="14" fill="#FCB5A8"></rect><path d="M425 1H426V7H428V8H423V15H422V8H420V15H419V8H414V7H416V1H417V7H425V1Z" fill="black"></path><path d="M418 2H424V6H418V2Z" fill="#FC8E2E"></path><path d="M415 9H418V14H415V9Z" fill="#FC8E2E"></path><path d="M427 9H424V14H427V9Z" fill="#FC8E2E"></path><rect x="1683" width="16" height="16" fill="black"></rect><rect x="1684" y="1" width="14" height="14" fill="#FCB5A8"></rect><path d="M1695 1H1696V7H1698V8H1693V15H1692V8H1690V15H1689V8H1684V7H1686V1H1687V7H1695V1Z" fill="black"></path><path d="M1688 2H1694V6H1688V2Z" fill="#FC8E2E"></path><path d="M1685 9H1688V14H1685V9Z" fill="#FC8E2E"></path><path d="M1697 9H1694V14H1697V9Z" fill="#FC8E2E"></path><rect x="540" width="16" height="16" fill="black"></rect><rect x="541" y="1" width="14" height="14" fill="#FCB5A8"></rect><path d="M552 1H553V7H555V8H550V15H549V8H547V15H546V8H541V7H543V1H544V7H552V1Z" fill="black"></path><path d="M545 2H551V6H545V2Z" fill="#FC8E2E"></path><path d="M542 9H545V14H542V9Z" fill="#FC8E2E"></path><path d="M554 9H551V14H554V9Z" fill="#FC8E2E"></path><rect x="1810" width="16" height="16" fill="black"></rect><rect x="1811" y="1" width="14" height="14" fill="#FCB5A8"></rect><path d="M1822 1H1823V7H1825V8H1820V15H1819V8H1817V15H1816V8H1811V7H1813V1H1814V7H1822V1Z" fill="black"></path><path d="M1815 2H1821V6H1815V2Z" fill="#FC8E2E"></path><path d="M1812 9H1815V14H1812V9Z" fill="#FC8E2E"></path><path d="M1824 9H1821V14H1824V9Z" fill="#FC8E2E"></path><rect x="667" width="16" height="16" fill="black"></rect><rect x="668" y="1" width="14" height="14" fill="#FCB5A8"></rect><path d="M679 1H680V7H682V8H677V15H676V8H674V15H673V8H668V7H670V1H671V7H679V1Z" fill="black"></path><path d="M672 2H678V6H672V2Z" fill="#FC8E2E"></path><path d="M669 9H672V14H669V9Z" fill="#FC8E2E"></path><path d="M681 9H678V14H681V9Z" fill="#FC8E2E"></path><rect x="1937" width="16" height="16" fill="black"></rect><rect x="1938" y="1" width="14" height="14" fill="#FCB5A8"></rect><path d="M1949 1H1950V7H1952V8H1947V15H1946V8H1944V15H1943V8H1938V7H1940V1H1941V7H1949V1Z" fill="black"></path><path d="M1942 2H1948V6H1942V2Z" fill="#FC8E2E"></path><path d="M1939 9H1942V14H1939V9Z" fill="#FC8E2E"></path><path d="M1951 9H1948V14H1951V9Z" fill="#FC8E2E"></path><rect x="794" width="16" height="16" fill="black"></rect><rect x="795" y="1" width="14" height="14" fill="#FCB5A8"></rect><path d="M806 1H807V7H809V8H804V15H803V8H801V15H800V8H795V7H797V1H798V7H806V1Z" fill="black"></path><path d="M799 2H805V6H799V2Z" fill="#FC8E2E"></path><path d="M796 9H799V14H796V9Z" fill="#FC8E2E"></path><path d="M808 9H805V14H808V9Z" fill="#FC8E2E"></path><rect x="2064" width="16" height="16" fill="black"></rect><rect x="2065" y="1" width="14" height="14" fill="#FCB5A8"></rect><path d="M2076 1H2077V7H2079V8H2074V15H2073V8H2071V15H2070V8H2065V7H2067V1H2068V7H2076V1Z" fill="black"></path><path d="M2069 2H2075V6H2069V2Z" fill="#FC8E2E"></path><path d="M2066 9H2069V14H2066V9Z" fill="#FC8E2E"></path><path d="M2078 9H2075V14H2078V9Z" fill="#FC8E2E"></path><rect x="921" width="16" height="16" fill="black"></rect><rect x="922" y="1" width="14" height="14" fill="#FCB5A8"></rect><path d="M933 1H934V7H936V8H931V15H930V8H928V15H927V8H922V7H924V1H925V7H933V1Z" fill="black"></path><path d="M926 2H932V6H926V2Z" fill="#FC8E2E"></path><path d="M923 9H926V14H923V9Z" fill="#FC8E2E"></path><path d="M935 9H932V14H935V9Z" fill="#FC8E2E"></path><rect x="2191" width="16" height="16" fill="black"></rect><rect x="2192" y="1" width="14" height="14" fill="#FCB5A8"></rect><path d="M2203 1H2204V7H2206V8H2201V15H2200V8H2198V15H2197V8H2192V7H2194V1H2195V7H2203V1Z" fill="black"></path><path d="M2196 2H2202V6H2196V2Z" fill="#FC8E2E"></path><path d="M2193 9H2196V14H2193V9Z" fill="#FC8E2E"></path><path d="M2205 9H2202V14H2205V9Z" fill="#FC8E2E"></path><rect x="1048" width="16" height="16" fill="black"></rect><rect x="1049" y="1" width="14" height="14" fill="#FCB5A8"></rect><path d="M1060 1H1061V7H1063V8H1058V15H1057V8H1055V15H1054V8H1049V7H1051V1H1052V7H1060V1Z" fill="black"></path><path d="M1053 2H1059V6H1053V2Z" fill="#FC8E2E"></path><path d="M1050 9H1053V14H1050V9Z" fill="#FC8E2E"></path><path d="M1062 9H1059V14H1062V9Z" fill="#FC8E2E"></path><rect x="2318" width="16" height="16" fill="black"></rect><rect x="2319" y="1" width="14" height="14" fill="#FCB5A8"></rect><path d="M2330 1H2331V7H2333V8H2328V15H2327V8H2325V15H2324V8H2319V7H2321V1H2322V7H2330V1Z" fill="black"></path><path d="M2323 2H2329V6H2323V2Z" fill="#FC8E2E"></path><path d="M2320 9H2323V14H2320V9Z" fill="#FC8E2E"></path><path d="M2332 9H2329V14H2332V9Z" fill="#FC8E2E"></path><rect x="1175" width="16" height="16" fill="black"></rect><rect x="1176" y="1" width="14" height="14" fill="#FCB5A8"></rect><path d="M1187 1H1188V7H1190V8H1185V15H1184V8H1182V15H1181V8H1176V7H1178V1H1179V7H1187V1Z" fill="black"></path><path d="M1180 2H1186V6H1180V2Z" fill="#FC8E2E"></path><path d="M1177 9H1180V14H1177V9Z" fill="#FC8E2E"></path><path d="M1189 9H1186V14H1189V9Z" fill="#FC8E2E"></path><rect x="2445" width="16" height="16" fill="black"></rect><rect x="2446" y="1" width="14" height="14" fill="#FCB5A8"></rect><path d="M2457 1H2458V7H2460V8H2455V15H2454V8H2452V15H2451V8H2446V7H2448V1H2449V7H2457V1Z" fill="black"></path><path d="M2450 2H2456V6H2450V2Z" fill="#FC8E2E"></path><path d="M2447 9H2450V14H2447V9Z" fill="#FC8E2E"></path><path d="M2459 9H2456V14H2459V9Z" fill="#FC8E2E"></path><rect x="95" width="16" height="16" fill="black"></rect><rect x="96" y="1" width="14" height="14" fill="#FCB5A8"></rect><path d="M107 1H108V7H110V8H105V15H104V8H102V15H101V8H96V7H98V1H99V7H107V1Z" fill="black"></path><path d="M100 2H106V6H100V2Z" fill="#FC8E2E"></path><path d="M97 9H100V14H97V9Z" fill="#FC8E2E"></path><path d="M109 9H106V14H109V9Z" fill="#FC8E2E"></path><rect x="1365" width="16" height="16" fill="black"></rect><rect x="1366" y="1" width="14" height="14" fill="#FCB5A8"></rect><path d="M1377 1H1378V7H1380V8H1375V15H1374V8H1372V15H1371V8H1366V7H1368V1H1369V7H1377V1Z" fill="black"></path><path d="M1370 2H1376V6H1370V2Z" fill="#FC8E2E"></path><path d="M1367 9H1370V14H1367V9Z" fill="#FC8E2E"></path><path d="M1379 9H1376V14H1379V9Z" fill="#FC8E2E"></path><rect x="222" width="16" height="16" fill="black"></rect><rect x="223" y="1" width="14" height="14" fill="#FCB5A8"></rect><path d="M234 1H235V7H237V8H232V15H231V8H229V15H228V8H223V7H225V1H226V7H234V1Z" fill="black"></path><path d="M227 2H233V6H227V2Z" fill="#FC8E2E"></path><path d="M224 9H227V14H224V9Z" fill="#FC8E2E"></path><path d="M236 9H233V14H236V9Z" fill="#FC8E2E"></path><rect x="1492" width="16" height="16" fill="black"></rect><rect x="1493" y="1" width="14" height="14" fill="#FCB5A8"></rect><path d="M1504 1H1505V7H1507V8H1502V15H1501V8H1499V15H1498V8H1493V7H1495V1H1496V7H1504V1Z" fill="black"></path><path d="M1497 2H1503V6H1497V2Z" fill="#FC8E2E"></path><path d="M1494 9H1497V14H1494V9Z" fill="#FC8E2E"></path><path d="M1506 9H1503V14H1506V9Z" fill="#FC8E2E"></path><rect x="349" width="16" height="16" fill="black"></rect><rect x="350" y="1" width="14" height="14" fill="#FCB5A8"></rect><path d="M361 1H362V7H364V8H359V15H358V8H356V15H355V8H350V7H352V1H353V7H361V1Z" fill="black"></path><path d="M354 2H360V6H354V2Z" fill="#FC8E2E"></path><path d="M351 9H354V14H351V9Z" fill="#FC8E2E"></path><path d="M363 9H360V14H363V9Z" fill="#FC8E2E"></path><rect x="1619" width="16" height="16" fill="black"></rect><rect x="1620" y="1" width="14" height="14" fill="#FCB5A8"></rect><path d="M1631 1H1632V7H1634V8H1629V15H1628V8H1626V15H1625V8H1620V7H1622V1H1623V7H1631V1Z" fill="black"></path><path d="M1624 2H1630V6H1624V2Z" fill="#FC8E2E"></path><path d="M1621 9H1624V14H1621V9Z" fill="#FC8E2E"></path><path d="M1633 9H1630V14H1633V9Z" fill="#FC8E2E"></path><rect x="476" width="16" height="16" fill="black"></rect><rect x="477" y="1" width="14" height="14" fill="#FCB5A8"></rect><path d="M488 1H489V7H491V8H486V15H485V8H483V15H482V8H477V7H479V1H480V7H488V1Z" fill="black"></path><path d="M481 2H487V6H481V2Z" fill="#FC8E2E"></path><path d="M478 9H481V14H478V9Z" fill="#FC8E2E"></path><path d="M490 9H487V14H490V9Z" fill="#FC8E2E"></path><rect x="1746" width="16" height="16" fill="black"></rect><rect x="1747" y="1" width="14" height="14" fill="#FCB5A8"></rect><path d="M1758 1H1759V7H1761V8H1756V15H1755V8H1753V15H1752V8H1747V7H1749V1H1750V7H1758V1Z" fill="black"></path><path d="M1751 2H1757V6H1751V2Z" fill="#FC8E2E"></path><path d="M1748 9H1751V14H1748V9Z" fill="#FC8E2E"></path><path d="M1760 9H1757V14H1760V9Z" fill="#FC8E2E"></path><rect x="603" width="16" height="16" fill="black"></rect><rect x="604" y="1" width="14" height="14" fill="#FCB5A8"></rect><path d="M615 1H616V7H618V8H613V15H612V8H610V15H609V8H604V7H606V1H607V7H615V1Z" fill="black"></path><path d="M608 2H614V6H608V2Z" fill="#FC8E2E"></path><path d="M605 9H608V14H605V9Z" fill="#FC8E2E"></path><path d="M617 9H614V14H617V9Z" fill="#FC8E2E"></path><rect x="1873" width="16" height="16" fill="black"></rect><rect x="1874" y="1" width="14" height="14" fill="#FCB5A8"></rect><path d="M1885 1H1886V7H1888V8H1883V15H1882V8H1880V15H1879V8H1874V7H1876V1H1877V7H1885V1Z" fill="black"></path><path d="M1878 2H1884V6H1878V2Z" fill="#FC8E2E"></path><path d="M1875 9H1878V14H1875V9Z" fill="#FC8E2E"></path><path d="M1887 9H1884V14H1887V9Z" fill="#FC8E2E"></path><rect x="730" width="16" height="16" fill="black"></rect><rect x="731" y="1" width="14" height="14" fill="#FCB5A8"></rect><path d="M742 1H743V7H745V8H740V15H739V8H737V15H736V8H731V7H733V1H734V7H742V1Z" fill="black"></path><path d="M735 2H741V6H735V2Z" fill="#FC8E2E"></path><path d="M732 9H735V14H732V9Z" fill="#FC8E2E"></path><path d="M744 9H741V14H744V9Z" fill="#FC8E2E"></path><rect x="2000" width="16" height="16" fill="black"></rect><rect x="2001" y="1" width="14" height="14" fill="#FCB5A8"></rect><path d="M2012 1H2013V7H2015V8H2010V15H2009V8H2007V15H2006V8H2001V7H2003V1H2004V7H2012V1Z" fill="black"></path><path d="M2005 2H2011V6H2005V2Z" fill="#FC8E2E"></path><path d="M2002 9H2005V14H2002V9Z" fill="#FC8E2E"></path><path d="M2014 9H2011V14H2014V9Z" fill="#FC8E2E"></path><rect x="857" width="16" height="16" fill="black"></rect><rect x="858" y="1" width="14" height="14" fill="#FCB5A8"></rect><path d="M869 1H870V7H872V8H867V15H866V8H864V15H863V8H858V7H860V1H861V7H869V1Z" fill="black"></path><path d="M862 2H868V6H862V2Z" fill="#FC8E2E"></path><path d="M859 9H862V14H859V9Z" fill="#FC8E2E"></path><path d="M871 9H868V14H871V9Z" fill="#FC8E2E"></path><rect x="2127" width="16" height="16" fill="black"></rect><rect x="2128" y="1" width="14" height="14" fill="#FCB5A8"></rect><path d="M2139 1H2140V7H2142V8H2137V15H2136V8H2134V15H2133V8H2128V7H2130V1H2131V7H2139V1Z" fill="black"></path><path d="M2132 2H2138V6H2132V2Z" fill="#FC8E2E"></path><path d="M2129 9H2132V14H2129V9Z" fill="#FC8E2E"></path><path d="M2141 9H2138V14H2141V9Z" fill="#FC8E2E"></path><rect x="984" width="16" height="16" fill="black"></rect><rect x="985" y="1" width="14" height="14" fill="#FCB5A8"></rect><path d="M996 1H997V7H999V8H994V15H993V8H991V15H990V8H985V7H987V1H988V7H996V1Z" fill="black"></path><path d="M989 2H995V6H989V2Z" fill="#FC8E2E"></path><path d="M986 9H989V14H986V9Z" fill="#FC8E2E"></path><path d="M998 9H995V14H998V9Z" fill="#FC8E2E"></path><rect x="2254" width="16" height="16" fill="black"></rect><rect x="2255" y="1" width="14" height="14" fill="#FCB5A8"></rect><path d="M2266 1H2267V7H2269V8H2264V15H2263V8H2261V15H2260V8H2255V7H2257V1H2258V7H2266V1Z" fill="black"></path><path d="M2259 2H2265V6H2259V2Z" fill="#FC8E2E"></path><path d="M2256 9H2259V14H2256V9Z" fill="#FC8E2E"></path><path d="M2268 9H2265V14H2268V9Z" fill="#FC8E2E"></path><rect x="1111" width="16" height="16" fill="black"></rect><rect x="1112" y="1" width="14" height="14" fill="#FCB5A8"></rect><path d="M1123 1H1124V7H1126V8H1121V15H1120V8H1118V15H1117V8H1112V7H1114V1H1115V7H1123V1Z" fill="black"></path><path d="M1116 2H1122V6H1116V2Z" fill="#FC8E2E"></path><path d="M1113 9H1116V14H1113V9Z" fill="#FC8E2E"></path><path d="M1125 9H1122V14H1125V9Z" fill="#FC8E2E"></path><rect x="2381" width="16" height="16" fill="black"></rect><rect x="2382" y="1" width="14" height="14" fill="#FCB5A8"></rect><path d="M2393 1H2394V7H2396V8H2391V15H2390V8H2388V15H2387V8H2382V7H2384V1H2385V7H2393V1Z" fill="black"></path><path d="M2386 2H2392V6H2386V2Z" fill="#FC8E2E"></path><path d="M2383 9H2386V14H2383V9Z" fill="#FC8E2E"></path><path d="M2395 9H2392V14H2395V9Z" fill="#FC8E2E"></path><rect x="1238" width="16" height="16" fill="black"></rect><rect x="1239" y="1" width="14" height="14" fill="#FCB5A8"></rect><path d="M1250 1H1251V7H1253V8H1248V15H1247V8H1245V15H1244V8H1239V7H1241V1H1242V7H1250V1Z" fill="black"></path><path d="M1243 2H1249V6H1243V2Z" fill="#FC8E2E"></path><path d="M1240 9H1243V14H1240V9Z" fill="#FC8E2E"></path><path d="M1252 9H1249V14H1252V9Z" fill="#FC8E2E"></path><rect x="2508" width="16" height="16" fill="black"></rect><rect x="2509" y="1" width="14" height="14" fill="#FCB5A8"></rect><path d="M2520 1H2521V7H2523V8H2518V15H2517V8H2515V15H2514V8H2509V7H2511V1H2512V7H2520V1Z" fill="black"></path><path d="M2513 2H2519V6H2513V2Z" fill="#FC8E2E"></path><path d="M2510 9H2513V14H2510V9Z" fill="#FC8E2E"></path><path d="M2522 9H2519V14H2522V9Z" fill="#FC8E2E"></path><rect x="16" width="16" height="16" fill="black"></rect><rect x="17" y="1" width="14" height="14" fill="#FCB5A8"></rect><path d="M28 1H29V7H31V8H26V15H25V8H23V15H22V8H17V7H19V1H20V7H28V1Z" fill="black"></path><path d="M21 2H27V6H21V2Z" fill="#FC8E2E"></path><path d="M18 9H21V14H18V9Z" fill="#FC8E2E"></path><path d="M30 9H27V14H30V9Z" fill="#FC8E2E"></path><rect x="1286" width="16" height="16" fill="black"></rect><rect x="1287" y="1" width="14" height="14" fill="#FCB5A8"></rect><path d="M1298 1H1299V7H1301V8H1296V15H1295V8H1293V15H1292V8H1287V7H1289V1H1290V7H1298V1Z" fill="black"></path><path d="M1291 2H1297V6H1291V2Z" fill="#FC8E2E"></path><path d="M1288 9H1291V14H1288V9Z" fill="#FC8E2E"></path><path d="M1300 9H1297V14H1300V9Z" fill="#FC8E2E"></path><rect x="143" width="16" height="16" fill="black"></rect><rect x="144" y="1" width="14" height="14" fill="#FCB5A8"></rect><path d="M155 1H156V7H158V8H153V15H152V8H150V15H149V8H144V7H146V1H147V7H155V1Z" fill="black"></path><path d="M148 2H154V6H148V2Z" fill="#FC8E2E"></path><path d="M145 9H148V14H145V9Z" fill="#FC8E2E"></path><path d="M157 9H154V14H157V9Z" fill="#FC8E2E"></path><rect x="1413" width="16" height="16" fill="black"></rect><rect x="1414" y="1" width="14" height="14" fill="#FCB5A8"></rect><path d="M1425 1H1426V7H1428V8H1423V15H1422V8H1420V15H1419V8H1414V7H1416V1H1417V7H1425V1Z" fill="black"></path><path d="M1418 2H1424V6H1418V2Z" fill="#FC8E2E"></path><path d="M1415 9H1418V14H1415V9Z" fill="#FC8E2E"></path><path d="M1427 9H1424V14H1427V9Z" fill="#FC8E2E"></path><rect x="270" width="16" height="16" fill="black"></rect><rect x="271" y="1" width="14" height="14" fill="#FCB5A8"></rect><path d="M282 1H283V7H285V8H280V15H279V8H277V15H276V8H271V7H273V1H274V7H282V1Z" fill="black"></path><path d="M275 2H281V6H275V2Z" fill="#FC8E2E"></path><path d="M272 9H275V14H272V9Z" fill="#FC8E2E"></path><path d="M284 9H281V14H284V9Z" fill="#FC8E2E"></path><rect x="1540" width="16" height="16" fill="black"></rect><rect x="1541" y="1" width="14" height="14" fill="#FCB5A8"></rect><path d="M1552 1H1553V7H1555V8H1550V15H1549V8H1547V15H1546V8H1541V7H1543V1H1544V7H1552V1Z" fill="black"></path><path d="M1545 2H1551V6H1545V2Z" fill="#FC8E2E"></path><path d="M1542 9H1545V14H1542V9Z" fill="#FC8E2E"></path><path d="M1554 9H1551V14H1554V9Z" fill="#FC8E2E"></path><rect x="397" width="16" height="16" fill="black"></rect><rect x="398" y="1" width="14" height="14" fill="#FCB5A8"></rect><path d="M409 1H410V7H412V8H407V15H406V8H404V15H403V8H398V7H400V1H401V7H409V1Z" fill="black"></path><path d="M402 2H408V6H402V2Z" fill="#FC8E2E"></path><path d="M399 9H402V14H399V9Z" fill="#FC8E2E"></path><path d="M411 9H408V14H411V9Z" fill="#FC8E2E"></path><rect x="1667" width="16" height="16" fill="black"></rect><rect x="1668" y="1" width="14" height="14" fill="#FCB5A8"></rect><path d="M1679 1H1680V7H1682V8H1677V15H1676V8H1674V15H1673V8H1668V7H1670V1H1671V7H1679V1Z" fill="black"></path><path d="M1672 2H1678V6H1672V2Z" fill="#FC8E2E"></path><path d="M1669 9H1672V14H1669V9Z" fill="#FC8E2E"></path><path d="M1681 9H1678V14H1681V9Z" fill="#FC8E2E"></path><rect x="524" width="16" height="16" fill="black"></rect><rect x="525" y="1" width="14" height="14" fill="#FCB5A8"></rect><path d="M536 1H537V7H539V8H534V15H533V8H531V15H530V8H525V7H527V1H528V7H536V1Z" fill="black"></path><path d="M529 2H535V6H529V2Z" fill="#FC8E2E"></path><path d="M526 9H529V14H526V9Z" fill="#FC8E2E"></path><path d="M538 9H535V14H538V9Z" fill="#FC8E2E"></path><rect x="1794" width="16" height="16" fill="black"></rect><rect x="1795" y="1" width="14" height="14" fill="#FCB5A8"></rect><path d="M1806 1H1807V7H1809V8H1804V15H1803V8H1801V15H1800V8H1795V7H1797V1H1798V7H1806V1Z" fill="black"></path><path d="M1799 2H1805V6H1799V2Z" fill="#FC8E2E"></path><path d="M1796 9H1799V14H1796V9Z" fill="#FC8E2E"></path><path d="M1808 9H1805V14H1808V9Z" fill="#FC8E2E"></path><rect x="651" width="16" height="16" fill="black"></rect><rect x="652" y="1" width="14" height="14" fill="#FCB5A8"></rect><path d="M663 1H664V7H666V8H661V15H660V8H658V15H657V8H652V7H654V1H655V7H663V1Z" fill="black"></path><path d="M656 2H662V6H656V2Z" fill="#FC8E2E"></path><path d="M653 9H656V14H653V9Z" fill="#FC8E2E"></path><path d="M665 9H662V14H665V9Z" fill="#FC8E2E"></path><rect x="1921" width="16" height="16" fill="black"></rect><rect x="1922" y="1" width="14" height="14" fill="#FCB5A8"></rect><path d="M1933 1H1934V7H1936V8H1931V15H1930V8H1928V15H1927V8H1922V7H1924V1H1925V7H1933V1Z" fill="black"></path><path d="M1926 2H1932V6H1926V2Z" fill="#FC8E2E"></path><path d="M1923 9H1926V14H1923V9Z" fill="#FC8E2E"></path><path d="M1935 9H1932V14H1935V9Z" fill="#FC8E2E"></path><rect x="778" width="16" height="16" fill="black"></rect><rect x="779" y="1" width="14" height="14" fill="#FCB5A8"></rect><path d="M790 1H791V7H793V8H788V15H787V8H785V15H784V8H779V7H781V1H782V7H790V1Z" fill="black"></path><path d="M783 2H789V6H783V2Z" fill="#FC8E2E"></path><path d="M780 9H783V14H780V9Z" fill="#FC8E2E"></path><path d="M792 9H789V14H792V9Z" fill="#FC8E2E"></path><rect x="2048" width="16" height="16" fill="black"></rect><rect x="2049" y="1" width="14" height="14" fill="#FCB5A8"></rect><path d="M2060 1H2061V7H2063V8H2058V15H2057V8H2055V15H2054V8H2049V7H2051V1H2052V7H2060V1Z" fill="black"></path><path d="M2053 2H2059V6H2053V2Z" fill="#FC8E2E"></path><path d="M2050 9H2053V14H2050V9Z" fill="#FC8E2E"></path><path d="M2062 9H2059V14H2062V9Z" fill="#FC8E2E"></path><rect x="905" width="16" height="16" fill="black"></rect><rect x="906" y="1" width="14" height="14" fill="#FCB5A8"></rect><path d="M917 1H918V7H920V8H915V15H914V8H912V15H911V8H906V7H908V1H909V7H917V1Z" fill="black"></path><path d="M910 2H916V6H910V2Z" fill="#FC8E2E"></path><path d="M907 9H910V14H907V9Z" fill="#FC8E2E"></path><path d="M919 9H916V14H919V9Z" fill="#FC8E2E"></path><rect x="2175" width="16" height="16" fill="black"></rect><rect x="2176" y="1" width="14" height="14" fill="#FCB5A8"></rect><path d="M2187 1H2188V7H2190V8H2185V15H2184V8H2182V15H2181V8H2176V7H2178V1H2179V7H2187V1Z" fill="black"></path><path d="M2180 2H2186V6H2180V2Z" fill="#FC8E2E"></path><path d="M2177 9H2180V14H2177V9Z" fill="#FC8E2E"></path><path d="M2189 9H2186V14H2189V9Z" fill="#FC8E2E"></path><rect x="1032" width="16" height="16" fill="black"></rect><rect x="1033" y="1" width="14" height="14" fill="#FCB5A8"></rect><path d="M1044 1H1045V7H1047V8H1042V15H1041V8H1039V15H1038V8H1033V7H1035V1H1036V7H1044V1Z" fill="black"></path><path d="M1037 2H1043V6H1037V2Z" fill="#FC8E2E"></path><path d="M1034 9H1037V14H1034V9Z" fill="#FC8E2E"></path><path d="M1046 9H1043V14H1046V9Z" fill="#FC8E2E"></path><rect x="2302" width="16" height="16" fill="black"></rect><rect x="2303" y="1" width="14" height="14" fill="#FCB5A8"></rect><path d="M2314 1H2315V7H2317V8H2312V15H2311V8H2309V15H2308V8H2303V7H2305V1H2306V7H2314V1Z" fill="black"></path><path d="M2307 2H2313V6H2307V2Z" fill="#FC8E2E"></path><path d="M2304 9H2307V14H2304V9Z" fill="#FC8E2E"></path><path d="M2316 9H2313V14H2316V9Z" fill="#FC8E2E"></path><rect x="1159" width="16" height="16" fill="black"></rect><rect x="1160" y="1" width="14" height="14" fill="#FCB5A8"></rect><path d="M1171 1H1172V7H1174V8H1169V15H1168V8H1166V15H1165V8H1160V7H1162V1H1163V7H1171V1Z" fill="black"></path><path d="M1164 2H1170V6H1164V2Z" fill="#FC8E2E"></path><path d="M1161 9H1164V14H1161V9Z" fill="#FC8E2E"></path><path d="M1173 9H1170V14H1173V9Z" fill="#FC8E2E"></path><rect x="2429" width="16" height="16" fill="black"></rect><rect x="2430" y="1" width="14" height="14" fill="#FCB5A8"></rect><path d="M2441 1H2442V7H2444V8H2439V15H2438V8H2436V15H2435V8H2430V7H2432V1H2433V7H2441V1Z" fill="black"></path><path d="M2434 2H2440V6H2434V2Z" fill="#FC8E2E"></path><path d="M2431 9H2434V14H2431V9Z" fill="#FC8E2E"></path><path d="M2443 9H2440V14H2443V9Z" fill="#FC8E2E"></path><rect x="79" width="16" height="16" fill="black"></rect><rect x="80" y="1" width="14" height="14" fill="#FCB5A8"></rect><path d="M91 1H92V7H94V8H89V15H88V8H86V15H85V8H80V7H82V1H83V7H91V1Z" fill="black"></path><path d="M84 2H90V6H84V2Z" fill="#FC8E2E"></path><path d="M81 9H84V14H81V9Z" fill="#FC8E2E"></path><path d="M93 9H90V14H93V9Z" fill="#FC8E2E"></path><rect x="1349" width="16" height="16" fill="black"></rect><rect x="1350" y="1" width="14" height="14" fill="#FCB5A8"></rect><path d="M1361 1H1362V7H1364V8H1359V15H1358V8H1356V15H1355V8H1350V7H1352V1H1353V7H1361V1Z" fill="black"></path><path d="M1354 2H1360V6H1354V2Z" fill="#FC8E2E"></path><path d="M1351 9H1354V14H1351V9Z" fill="#FC8E2E"></path><path d="M1363 9H1360V14H1363V9Z" fill="#FC8E2E"></path><rect x="206" width="16" height="16" fill="black"></rect><rect x="207" y="1" width="14" height="14" fill="#FCB5A8"></rect><path d="M218 1H219V7H221V8H216V15H215V8H213V15H212V8H207V7H209V1H210V7H218V1Z" fill="black"></path><path d="M211 2H217V6H211V2Z" fill="#FC8E2E"></path><path d="M208 9H211V14H208V9Z" fill="#FC8E2E"></path><path d="M220 9H217V14H220V9Z" fill="#FC8E2E"></path><rect x="1476" width="16" height="16" fill="black"></rect><rect x="1477" y="1" width="14" height="14" fill="#FCB5A8"></rect><path d="M1488 1H1489V7H1491V8H1486V15H1485V8H1483V15H1482V8H1477V7H1479V1H1480V7H1488V1Z" fill="black"></path><path d="M1481 2H1487V6H1481V2Z" fill="#FC8E2E"></path><path d="M1478 9H1481V14H1478V9Z" fill="#FC8E2E"></path><path d="M1490 9H1487V14H1490V9Z" fill="#FC8E2E"></path><rect x="333" width="16" height="16" fill="black"></rect><rect x="334" y="1" width="14" height="14" fill="#FCB5A8"></rect><path d="M345 1H346V7H348V8H343V15H342V8H340V15H339V8H334V7H336V1H337V7H345V1Z" fill="black"></path><path d="M338 2H344V6H338V2Z" fill="#FC8E2E"></path><path d="M335 9H338V14H335V9Z" fill="#FC8E2E"></path><path d="M347 9H344V14H347V9Z" fill="#FC8E2E"></path><rect x="1603" width="16" height="16" fill="black"></rect><rect x="1604" y="1" width="14" height="14" fill="#FCB5A8"></rect><path d="M1615 1H1616V7H1618V8H1613V15H1612V8H1610V15H1609V8H1604V7H1606V1H1607V7H1615V1Z" fill="black"></path><path d="M1608 2H1614V6H1608V2Z" fill="#FC8E2E"></path><path d="M1605 9H1608V14H1605V9Z" fill="#FC8E2E"></path><path d="M1617 9H1614V14H1617V9Z" fill="#FC8E2E"></path><rect x="460" width="16" height="16" fill="black"></rect><rect x="461" y="1" width="14" height="14" fill="#FCB5A8"></rect><path d="M472 1H473V7H475V8H470V15H469V8H467V15H466V8H461V7H463V1H464V7H472V1Z" fill="black"></path><path d="M465 2H471V6H465V2Z" fill="#FC8E2E"></path><path d="M462 9H465V14H462V9Z" fill="#FC8E2E"></path><path d="M474 9H471V14H474V9Z" fill="#FC8E2E"></path><rect x="1730" width="16" height="16" fill="black"></rect><rect x="1731" y="1" width="14" height="14" fill="#FCB5A8"></rect><path d="M1742 1H1743V7H1745V8H1740V15H1739V8H1737V15H1736V8H1731V7H1733V1H1734V7H1742V1Z" fill="black"></path><path d="M1735 2H1741V6H1735V2Z" fill="#FC8E2E"></path><path d="M1732 9H1735V14H1732V9Z" fill="#FC8E2E"></path><path d="M1744 9H1741V14H1744V9Z" fill="#FC8E2E"></path><rect x="460" width="16" height="16" fill="black"></rect><rect x="461" y="1" width="14" height="14" fill="#FCB5A8"></rect><path d="M472 1H473V7H475V8H470V15H469V8H467V15H466V8H461V7H463V1H464V7H472V1Z" fill="black"></path><path d="M465 2H471V6H465V2Z" fill="#FC8E2E"></path><path d="M462 9H465V14H462V9Z" fill="#FC8E2E"></path><path d="M474 9H471V14H474V9Z" fill="#FC8E2E"></path><rect x="1730" width="16" height="16" fill="black"></rect><rect x="1731" y="1" width="14" height="14" fill="#FCB5A8"></rect><path d="M1742 1H1743V7H1745V8H1740V15H1739V8H1737V15H1736V8H1731V7H1733V1H1734V7H1742V1Z" fill="black"></path><path d="M1735 2H1741V6H1735V2Z" fill="#FC8E2E"></path><path d="M1732 9H1735V14H1732V9Z" fill="#FC8E2E"></path><path d="M1744 9H1741V14H1744V9Z" fill="#FC8E2E"></path><rect x="587" width="16" height="16" fill="black"></rect><rect x="588" y="1" width="14" height="14" fill="#FCB5A8"></rect><path d="M599 1H600V7H602V8H597V15H596V8H594V15H593V8H588V7H590V1H591V7H599V1Z" fill="black"></path><path d="M592 2H598V6H592V2Z" fill="#FC8E2E"></path><path d="M589 9H592V14H589V9Z" fill="#FC8E2E"></path><path d="M601 9H598V14H601V9Z" fill="#FC8E2E"></path><rect x="1857" width="16" height="16" fill="black"></rect><rect x="1858" y="1" width="14" height="14" fill="#FCB5A8"></rect><path d="M1869 1H1870V7H1872V8H1867V15H1866V8H1864V15H1863V8H1858V7H1860V1H1861V7H1869V1Z" fill="black"></path><path d="M1862 2H1868V6H1862V2Z" fill="#FC8E2E"></path><path d="M1859 9H1862V14H1859V9Z" fill="#FC8E2E"></path><path d="M1871 9H1868V14H1871V9Z" fill="#FC8E2E"></path><rect x="714" width="16" height="16" fill="black"></rect><rect x="715" y="1" width="14" height="14" fill="#FCB5A8"></rect><path d="M726 1H727V7H729V8H724V15H723V8H721V15H720V8H715V7H717V1H718V7H726V1Z" fill="black"></path><path d="M719 2H725V6H719V2Z" fill="#FC8E2E"></path><path d="M716 9H719V14H716V9Z" fill="#FC8E2E"></path><path d="M728 9H725V14H728V9Z" fill="#FC8E2E"></path><rect x="1984" width="16" height="16" fill="black"></rect><rect x="1985" y="1" width="14" height="14" fill="#FCB5A8"></rect><path d="M1996 1H1997V7H1999V8H1994V15H1993V8H1991V15H1990V8H1985V7H1987V1H1988V7H1996V1Z" fill="black"></path><path d="M1989 2H1995V6H1989V2Z" fill="#FC8E2E"></path><path d="M1986 9H1989V14H1986V9Z" fill="#FC8E2E"></path><path d="M1998 9H1995V14H1998V9Z" fill="#FC8E2E"></path><rect x="841" width="16" height="16" fill="black"></rect><rect x="842" y="1" width="14" height="14" fill="#FCB5A8"></rect><path d="M853 1H854V7H856V8H851V15H850V8H848V15H847V8H842V7H844V1H845V7H853V1Z" fill="black"></path><path d="M846 2H852V6H846V2Z" fill="#FC8E2E"></path><path d="M843 9H846V14H843V9Z" fill="#FC8E2E"></path><path d="M855 9H852V14H855V9Z" fill="#FC8E2E"></path><rect x="2111" width="16" height="16" fill="black"></rect><rect x="2112" y="1" width="14" height="14" fill="#FCB5A8"></rect><path d="M2123 1H2124V7H2126V8H2121V15H2120V8H2118V15H2117V8H2112V7H2114V1H2115V7H2123V1Z" fill="black"></path><path d="M2116 2H2122V6H2116V2Z" fill="#FC8E2E"></path><path d="M2113 9H2116V14H2113V9Z" fill="#FC8E2E"></path><path d="M2125 9H2122V14H2125V9Z" fill="#FC8E2E"></path><rect x="968" width="16" height="16" fill="black"></rect><rect x="969" y="1" width="14" height="14" fill="#FCB5A8"></rect><path d="M980 1H981V7H983V8H978V15H977V8H975V15H974V8H969V7H971V1H972V7H980V1Z" fill="black"></path><path d="M973 2H979V6H973V2Z" fill="#FC8E2E"></path><path d="M970 9H973V14H970V9Z" fill="#FC8E2E"></path><path d="M982 9H979V14H982V9Z" fill="#FC8E2E"></path><rect x="2238" width="16" height="16" fill="black"></rect><rect x="2239" y="1" width="14" height="14" fill="#FCB5A8"></rect><path d="M2250 1H2251V7H2253V8H2248V15H2247V8H2245V15H2244V8H2239V7H2241V1H2242V7H2250V1Z" fill="black"></path><path d="M2243 2H2249V6H2243V2Z" fill="#FC8E2E"></path><path d="M2240 9H2243V14H2240V9Z" fill="#FC8E2E"></path><path d="M2252 9H2249V14H2252V9Z" fill="#FC8E2E"></path><rect x="1095" width="16" height="16" fill="black"></rect><rect x="1096" y="1" width="14" height="14" fill="#FCB5A8"></rect><path d="M1107 1H1108V7H1110V8H1105V15H1104V8H1102V15H1101V8H1096V7H1098V1H1099V7H1107V1Z" fill="black"></path><path d="M1100 2H1106V6H1100V2Z" fill="#FC8E2E"></path><path d="M1097 9H1100V14H1097V9Z" fill="#FC8E2E"></path><path d="M1109 9H1106V14H1109V9Z" fill="#FC8E2E"></path><rect x="2365" width="16" height="16" fill="black"></rect><rect x="2366" y="1" width="14" height="14" fill="#FCB5A8"></rect><path d="M2377 1H2378V7H2380V8H2375V15H2374V8H2372V15H2371V8H2366V7H2368V1H2369V7H2377V1Z" fill="black"></path><path d="M2370 2H2376V6H2370V2Z" fill="#FC8E2E"></path><path d="M2367 9H2370V14H2367V9Z" fill="#FC8E2E"></path><path d="M2379 9H2376V14H2379V9Z" fill="#FC8E2E"></path><rect x="1222" width="16" height="16" fill="black"></rect><rect x="1223" y="1" width="14" height="14" fill="#FCB5A8"></rect><path d="M1234 1H1235V7H1237V8H1232V15H1231V8H1229V15H1228V8H1223V7H1225V1H1226V7H1234V1Z" fill="black"></path><path d="M1227 2H1233V6H1227V2Z" fill="#FC8E2E"></path><path d="M1224 9H1227V14H1224V9Z" fill="#FC8E2E"></path><path d="M1236 9H1233V14H1236V9Z" fill="#FC8E2E"></path><rect x="2492" width="16" height="16" fill="black"></rect><rect x="2493" y="1" width="14" height="14" fill="#FCB5A8"></rect><path d="M2504 1H2505V7H2507V8H2502V15H2501V8H2499V15H2498V8H2493V7H2495V1H2496V7H2504V1Z" fill="black"></path><path d="M2497 2H2503V6H2497V2Z" fill="#FC8E2E"></path><path d="M2494 9H2497V14H2494V9Z" fill="#FC8E2E"></path><path d="M2506 9H2503V14H2506V9Z" fill="#FC8E2E"></path><rect x="48" width="16" height="16" fill="black"></rect><rect x="49" y="1" width="14" height="14" fill="#FCB5A8"></rect><path d="M60 1H61V7H63V8H58V15H57V8H55V15H54V8H49V7H51V1H52V7H60V1Z" fill="black"></path><path d="M53 2H59V6H53V2Z" fill="#FC8E2E"></path><path d="M50 9H53V14H50V9Z" fill="#FC8E2E"></path><path d="M62 9H59V14H62V9Z" fill="#FC8E2E"></path><rect x="1318" width="16" height="16" fill="black"></rect><rect x="1319" y="1" width="14" height="14" fill="#FCB5A8"></rect><path d="M1330 1H1331V7H1333V8H1328V15H1327V8H1325V15H1324V8H1319V7H1321V1H1322V7H1330V1Z" fill="black"></path><path d="M1323 2H1329V6H1323V2Z" fill="#FC8E2E"></path><path d="M1320 9H1323V14H1320V9Z" fill="#FC8E2E"></path><path d="M1332 9H1329V14H1332V9Z" fill="#FC8E2E"></path><rect x="175" width="16" height="16" fill="black"></rect><rect x="176" y="1" width="14" height="14" fill="#FCB5A8"></rect><path d="M187 1H188V7H190V8H185V15H184V8H182V15H181V8H176V7H178V1H179V7H187V1Z" fill="black"></path><path d="M180 2H186V6H180V2Z" fill="#FC8E2E"></path><path d="M177 9H180V14H177V9Z" fill="#FC8E2E"></path><path d="M189 9H186V14H189V9Z" fill="#FC8E2E"></path><rect x="1445" width="16" height="16" fill="black"></rect><rect x="1446" y="1" width="14" height="14" fill="#FCB5A8"></rect><path d="M1457 1H1458V7H1460V8H1455V15H1454V8H1452V15H1451V8H1446V7H1448V1H1449V7H1457V1Z" fill="black"></path><path d="M1450 2H1456V6H1450V2Z" fill="#FC8E2E"></path><path d="M1447 9H1450V14H1447V9Z" fill="#FC8E2E"></path><path d="M1459 9H1456V14H1459V9Z" fill="#FC8E2E"></path><rect x="302" width="16" height="16" fill="black"></rect><rect x="303" y="1" width="14" height="14" fill="#FCB5A8"></rect><path d="M314 1H315V7H317V8H312V15H311V8H309V15H308V8H303V7H305V1H306V7H314V1Z" fill="black"></path><path d="M307 2H313V6H307V2Z" fill="#FC8E2E"></path><path d="M304 9H307V14H304V9Z" fill="#FC8E2E"></path><path d="M316 9H313V14H316V9Z" fill="#FC8E2E"></path><rect x="1572" width="16" height="16" fill="black"></rect><rect x="1573" y="1" width="14" height="14" fill="#FCB5A8"></rect><path d="M1584 1H1585V7H1587V8H1582V15H1581V8H1579V15H1578V8H1573V7H1575V1H1576V7H1584V1Z" fill="black"></path><path d="M1577 2H1583V6H1577V2Z" fill="#FC8E2E"></path><path d="M1574 9H1577V14H1574V9Z" fill="#FC8E2E"></path><path d="M1586 9H1583V14H1586V9Z" fill="#FC8E2E"></path><rect x="429" width="16" height="16" fill="black"></rect><rect x="430" y="1" width="14" height="14" fill="#FCB5A8"></rect><path d="M441 1H442V7H444V8H439V15H438V8H436V15H435V8H430V7H432V1H433V7H441V1Z" fill="black"></path><path d="M434 2H440V6H434V2Z" fill="#FC8E2E"></path><path d="M431 9H434V14H431V9Z" fill="#FC8E2E"></path><path d="M443 9H440V14H443V9Z" fill="#FC8E2E"></path><rect x="1699" width="16" height="16" fill="black"></rect><rect x="1700" y="1" width="14" height="14" fill="#FCB5A8"></rect><path d="M1711 1H1712V7H1714V8H1709V15H1708V8H1706V15H1705V8H1700V7H1702V1H1703V7H1711V1Z" fill="black"></path><path d="M1704 2H1710V6H1704V2Z" fill="#FC8E2E"></path><path d="M1701 9H1704V14H1701V9Z" fill="#FC8E2E"></path><path d="M1713 9H1710V14H1713V9Z" fill="#FC8E2E"></path><rect x="556" width="16" height="16" fill="black"></rect><rect x="557" y="1" width="14" height="14" fill="#FCB5A8"></rect><path d="M568 1H569V7H571V8H566V15H565V8H563V15H562V8H557V7H559V1H560V7H568V1Z" fill="black"></path><path d="M561 2H567V6H561V2Z" fill="#FC8E2E"></path><path d="M558 9H561V14H558V9Z" fill="#FC8E2E"></path><path d="M570 9H567V14H570V9Z" fill="#FC8E2E"></path><rect x="1826" width="16" height="16" fill="black"></rect><rect x="1827" y="1" width="14" height="14" fill="#FCB5A8"></rect><path d="M1838 1H1839V7H1841V8H1836V15H1835V8H1833V15H1832V8H1827V7H1829V1H1830V7H1838V1Z" fill="black"></path><path d="M1831 2H1837V6H1831V2Z" fill="#FC8E2E"></path><path d="M1828 9H1831V14H1828V9Z" fill="#FC8E2E"></path><path d="M1840 9H1837V14H1840V9Z" fill="#FC8E2E"></path><rect x="683" width="16" height="16" fill="black"></rect><rect x="684" y="1" width="14" height="14" fill="#FCB5A8"></rect><path d="M695 1H696V7H698V8H693V15H692V8H690V15H689V8H684V7H686V1H687V7H695V1Z" fill="black"></path><path d="M688 2H694V6H688V2Z" fill="#FC8E2E"></path><path d="M685 9H688V14H685V9Z" fill="#FC8E2E"></path><path d="M697 9H694V14H697V9Z" fill="#FC8E2E"></path><rect x="1953" width="16" height="16" fill="black"></rect><rect x="1954" y="1" width="14" height="14" fill="#FCB5A8"></rect><path d="M1965 1H1966V7H1968V8H1963V15H1962V8H1960V15H1959V8H1954V7H1956V1H1957V7H1965V1Z" fill="black"></path><path d="M1958 2H1964V6H1958V2Z" fill="#FC8E2E"></path><path d="M1955 9H1958V14H1955V9Z" fill="#FC8E2E"></path><path d="M1967 9H1964V14H1967V9Z" fill="#FC8E2E"></path><rect x="810" width="16" height="16" fill="black"></rect><rect x="811" y="1" width="14" height="14" fill="#FCB5A8"></rect><path d="M822 1H823V7H825V8H820V15H819V8H817V15H816V8H811V7H813V1H814V7H822V1Z" fill="black"></path><path d="M815 2H821V6H815V2Z" fill="#FC8E2E"></path><path d="M812 9H815V14H812V9Z" fill="#FC8E2E"></path><path d="M824 9H821V14H824V9Z" fill="#FC8E2E"></path><rect x="2080" width="16" height="16" fill="black"></rect><rect x="2081" y="1" width="14" height="14" fill="#FCB5A8"></rect><path d="M2092 1H2093V7H2095V8H2090V15H2089V8H2087V15H2086V8H2081V7H2083V1H2084V7H2092V1Z" fill="black"></path><path d="M2085 2H2091V6H2085V2Z" fill="#FC8E2E"></path><path d="M2082 9H2085V14H2082V9Z" fill="#FC8E2E"></path><path d="M2094 9H2091V14H2094V9Z" fill="#FC8E2E"></path><rect x="937" width="16" height="16" fill="black"></rect><rect x="938" y="1" width="14" height="14" fill="#FCB5A8"></rect><path d="M949 1H950V7H952V8H947V15H946V8H944V15H943V8H938V7H940V1H941V7H949V1Z" fill="black"></path><path d="M942 2H948V6H942V2Z" fill="#FC8E2E"></path><path d="M939 9H942V14H939V9Z" fill="#FC8E2E"></path><path d="M951 9H948V14H951V9Z" fill="#FC8E2E"></path><rect x="2207" width="16" height="16" fill="black"></rect><rect x="2208" y="1" width="14" height="14" fill="#FCB5A8"></rect><path d="M2219 1H2220V7H2222V8H2217V15H2216V8H2214V15H2213V8H2208V7H2210V1H2211V7H2219V1Z" fill="black"></path><path d="M2212 2H2218V6H2212V2Z" fill="#FC8E2E"></path><path d="M2209 9H2212V14H2209V9Z" fill="#FC8E2E"></path><path d="M2221 9H2218V14H2221V9Z" fill="#FC8E2E"></path><rect x="1064" width="16" height="16" fill="black"></rect><rect x="1065" y="1" width="14" height="14" fill="#FCB5A8"></rect><path d="M1076 1H1077V7H1079V8H1074V15H1073V8H1071V15H1070V8H1065V7H1067V1H1068V7H1076V1Z" fill="black"></path><path d="M1069 2H1075V6H1069V2Z" fill="#FC8E2E"></path><path d="M1066 9H1069V14H1066V9Z" fill="#FC8E2E"></path><path d="M1078 9H1075V14H1078V9Z" fill="#FC8E2E"></path><rect x="2334" width="16" height="16" fill="black"></rect><rect x="2335" y="1" width="14" height="14" fill="#FCB5A8"></rect><path d="M2346 1H2347V7H2349V8H2344V15H2343V8H2341V15H2340V8H2335V7H2337V1H2338V7H2346V1Z" fill="black"></path><path d="M2339 2H2345V6H2339V2Z" fill="#FC8E2E"></path><path d="M2336 9H2339V14H2336V9Z" fill="#FC8E2E"></path><path d="M2348 9H2345V14H2348V9Z" fill="#FC8E2E"></path><rect x="1191" width="16" height="16" fill="black"></rect><rect x="1192" y="1" width="14" height="14" fill="#FCB5A8"></rect><path d="M1203 1H1204V7H1206V8H1201V15H1200V8H1198V15H1197V8H1192V7H1194V1H1195V7H1203V1Z" fill="black"></path><path d="M1196 2H1202V6H1196V2Z" fill="#FC8E2E"></path><path d="M1193 9H1196V14H1193V9Z" fill="#FC8E2E"></path><path d="M1205 9H1202V14H1205V9Z" fill="#FC8E2E"></path><rect x="2461" width="16" height="16" fill="black"></rect><rect x="2462" y="1" width="14" height="14" fill="#FCB5A8"></rect><path d="M2473 1H2474V7H2476V8H2471V15H2470V8H2468V15H2467V8H2462V7H2464V1H2465V7H2473V1Z" fill="black"></path><path d="M2466 2H2472V6H2466V2Z" fill="#FC8E2E"></path><path d="M2463 9H2466V14H2463V9Z" fill="#FC8E2E"></path><path d="M2475 9H2472V14H2475V9Z" fill="#FC8E2E"></path><rect x="111" width="16" height="16" fill="black"></rect><rect x="112" y="1" width="14" height="14" fill="#FCB5A8"></rect><path d="M123 1H124V7H126V8H121V15H120V8H118V15H117V8H112V7H114V1H115V7H123V1Z" fill="black"></path><path d="M116 2H122V6H116V2Z" fill="#FC8E2E"></path><path d="M113 9H116V14H113V9Z" fill="#FC8E2E"></path><path d="M125 9H122V14H125V9Z" fill="#FC8E2E"></path><rect x="1381" width="16" height="16" fill="black"></rect><rect x="1382" y="1" width="14" height="14" fill="#FCB5A8"></rect><path d="M1393 1H1394V7H1396V8H1391V15H1390V8H1388V15H1387V8H1382V7H1384V1H1385V7H1393V1Z" fill="black"></path><path d="M1386 2H1392V6H1386V2Z" fill="#FC8E2E"></path><path d="M1383 9H1386V14H1383V9Z" fill="#FC8E2E"></path><path d="M1395 9H1392V14H1395V9Z" fill="#FC8E2E"></path><rect x="238" width="16" height="16" fill="black"></rect><rect x="239" y="1" width="14" height="14" fill="#FCB5A8"></rect><path d="M250 1H251V7H253V8H248V15H247V8H245V15H244V8H239V7H241V1H242V7H250V1Z" fill="black"></path><path d="M243 2H249V6H243V2Z" fill="#FC8E2E"></path><path d="M240 9H243V14H240V9Z" fill="#FC8E2E"></path><path d="M252 9H249V14H252V9Z" fill="#FC8E2E"></path><rect x="1508" width="16" height="16" fill="black"></rect><rect x="1509" y="1" width="14" height="14" fill="#FCB5A8"></rect><path d="M1520 1H1521V7H1523V8H1518V15H1517V8H1515V15H1514V8H1509V7H1511V1H1512V7H1520V1Z" fill="black"></path><path d="M1513 2H1519V6H1513V2Z" fill="#FC8E2E"></path><path d="M1510 9H1513V14H1510V9Z" fill="#FC8E2E"></path><path d="M1522 9H1519V14H1522V9Z" fill="#FC8E2E"></path><rect x="365" width="16" height="16" fill="black"></rect><rect x="366" y="1" width="14" height="14" fill="#FCB5A8"></rect><path d="M377 1H378V7H380V8H375V15H374V8H372V15H371V8H366V7H368V1H369V7H377V1Z" fill="black"></path><path d="M370 2H376V6H370V2Z" fill="#FC8E2E"></path><path d="M367 9H370V14H367V9Z" fill="#FC8E2E"></path><path d="M379 9H376V14H379V9Z" fill="#FC8E2E"></path><rect x="1635" width="16" height="16" fill="black"></rect><rect x="1636" y="1" width="14" height="14" fill="#FCB5A8"></rect><path d="M1647 1H1648V7H1650V8H1645V15H1644V8H1642V15H1641V8H1636V7H1638V1H1639V7H1647V1Z" fill="black"></path><path d="M1640 2H1646V6H1640V2Z" fill="#FC8E2E"></path><path d="M1637 9H1640V14H1637V9Z" fill="#FC8E2E"></path><path d="M1649 9H1646V14H1649V9Z" fill="#FC8E2E"></path><rect x="492" width="16" height="16" fill="black"></rect><rect x="493" y="1" width="14" height="14" fill="#FCB5A8"></rect><path d="M504 1H505V7H507V8H502V15H501V8H499V15H498V8H493V7H495V1H496V7H504V1Z" fill="black"></path><path d="M497 2H503V6H497V2Z" fill="#FC8E2E"></path><path d="M494 9H497V14H494V9Z" fill="#FC8E2E"></path><path d="M506 9H503V14H506V9Z" fill="#FC8E2E"></path><rect x="1762" width="16" height="16" fill="black"></rect><rect x="1763" y="1" width="14" height="14" fill="#FCB5A8"></rect><path d="M1774 1H1775V7H1777V8H1772V15H1771V8H1769V15H1768V8H1763V7H1765V1H1766V7H1774V1Z" fill="black"></path><path d="M1767 2H1773V6H1767V2Z" fill="#FC8E2E"></path><path d="M1764 9H1767V14H1764V9Z" fill="#FC8E2E"></path><path d="M1776 9H1773V14H1776V9Z" fill="#FC8E2E"></path><rect x="619" width="16" height="16" fill="black"></rect><rect x="620" y="1" width="14" height="14" fill="#FCB5A8"></rect><path d="M631 1H632V7H634V8H629V15H628V8H626V15H625V8H620V7H622V1H623V7H631V1Z" fill="black"></path><path d="M624 2H630V6H624V2Z" fill="#FC8E2E"></path><path d="M621 9H624V14H621V9Z" fill="#FC8E2E"></path><path d="M633 9H630V14H633V9Z" fill="#FC8E2E"></path><rect x="1889" width="16" height="16" fill="black"></rect><rect x="1890" y="1" width="14" height="14" fill="#FCB5A8"></rect><path d="M1901 1H1902V7H1904V8H1899V15H1898V8H1896V15H1895V8H1890V7H1892V1H1893V7H1901V1Z" fill="black"></path><path d="M1894 2H1900V6H1894V2Z" fill="#FC8E2E"></path><path d="M1891 9H1894V14H1891V9Z" fill="#FC8E2E"></path><path d="M1903 9H1900V14H1903V9Z" fill="#FC8E2E"></path><rect x="746" width="16" height="16" fill="black"></rect><rect x="747" y="1" width="14" height="14" fill="#FCB5A8"></rect><path d="M758 1H759V7H761V8H756V15H755V8H753V15H752V8H747V7H749V1H750V7H758V1Z" fill="black"></path><path d="M751 2H757V6H751V2Z" fill="#FC8E2E"></path><path d="M748 9H751V14H748V9Z" fill="#FC8E2E"></path><path d="M760 9H757V14H760V9Z" fill="#FC8E2E"></path><rect x="2016" width="16" height="16" fill="black"></rect><rect x="2017" y="1" width="14" height="14" fill="#FCB5A8"></rect><path d="M2028 1H2029V7H2031V8H2026V15H2025V8H2023V15H2022V8H2017V7H2019V1H2020V7H2028V1Z" fill="black"></path><path d="M2021 2H2027V6H2021V2Z" fill="#FC8E2E"></path><path d="M2018 9H2021V14H2018V9Z" fill="#FC8E2E"></path><path d="M2030 9H2027V14H2030V9Z" fill="#FC8E2E"></path><rect x="873" width="16" height="16" fill="black"></rect><rect x="874" y="1" width="14" height="14" fill="#FCB5A8"></rect><path d="M885 1H886V7H888V8H883V15H882V8H880V15H879V8H874V7H876V1H877V7H885V1Z" fill="black"></path><path d="M878 2H884V6H878V2Z" fill="#FC8E2E"></path><path d="M875 9H878V14H875V9Z" fill="#FC8E2E"></path><path d="M887 9H884V14H887V9Z" fill="#FC8E2E"></path><rect x="2143" width="16" height="16" fill="black"></rect><rect x="2144" y="1" width="14" height="14" fill="#FCB5A8"></rect><path d="M2155 1H2156V7H2158V8H2153V15H2152V8H2150V15H2149V8H2144V7H2146V1H2147V7H2155V1Z" fill="black"></path><path d="M2148 2H2154V6H2148V2Z" fill="#FC8E2E"></path><path d="M2145 9H2148V14H2145V9Z" fill="#FC8E2E"></path><path d="M2157 9H2154V14H2157V9Z" fill="#FC8E2E"></path><rect x="1000" width="16" height="16" fill="black"></rect><rect x="1001" y="1" width="14" height="14" fill="#FCB5A8"></rect><path d="M1012 1H1013V7H1015V8H1010V15H1009V8H1007V15H1006V8H1001V7H1003V1H1004V7H1012V1Z" fill="black"></path><path d="M1005 2H1011V6H1005V2Z" fill="#FC8E2E"></path><path d="M1002 9H1005V14H1002V9Z" fill="#FC8E2E"></path><path d="M1014 9H1011V14H1014V9Z" fill="#FC8E2E"></path><rect x="2270" width="16" height="16" fill="black"></rect><rect x="2271" y="1" width="14" height="14" fill="#FCB5A8"></rect><path d="M2282 1H2283V7H2285V8H2280V15H2279V8H2277V15H2276V8H2271V7H2273V1H2274V7H2282V1Z" fill="black"></path><path d="M2275 2H2281V6H2275V2Z" fill="#FC8E2E"></path><path d="M2272 9H2275V14H2272V9Z" fill="#FC8E2E"></path><path d="M2284 9H2281V14H2284V9Z" fill="#FC8E2E"></path><rect x="1127" width="16" height="16" fill="black"></rect><rect x="1128" y="1" width="14" height="14" fill="#FCB5A8"></rect><path d="M1139 1H1140V7H1142V8H1137V15H1136V8H1134V15H1133V8H1128V7H1130V1H1131V7H1139V1Z" fill="black"></path><path d="M1132 2H1138V6H1132V2Z" fill="#FC8E2E"></path><path d="M1129 9H1132V14H1129V9Z" fill="#FC8E2E"></path><path d="M1141 9H1138V14H1141V9Z" fill="#FC8E2E"></path><rect x="2397" width="16" height="16" fill="black"></rect><rect x="2398" y="1" width="14" height="14" fill="#FCB5A8"></rect><path d="M2409 1H2410V7H2412V8H2407V15H2406V8H2404V15H2403V8H2398V7H2400V1H2401V7H2409V1Z" fill="black"></path><path d="M2402 2H2408V6H2402V2Z" fill="#FC8E2E"></path><path d="M2399 9H2402V14H2399V9Z" fill="#FC8E2E"></path><path d="M2411 9H2408V14H2411V9Z" fill="#FC8E2E"></path><rect x="1254" width="16" height="16" fill="black"></rect><rect x="1255" y="1" width="14" height="14" fill="#FCB5A8"></rect><path d="M1266 1H1267V7H1269V8H1264V15H1263V8H1261V15H1260V8H1255V7H1257V1H1258V7H1266V1Z" fill="black"></path><path d="M1259 2H1265V6H1259V2Z" fill="#FC8E2E"></path><path d="M1256 9H1259V14H1256V9Z" fill="#FC8E2E"></path><path d="M1268 9H1265V14H1268V9Z" fill="#FC8E2E"></path><rect x="2524" width="16" height="16" fill="black"></rect><rect x="2525" y="1" width="14" height="14" fill="#FCB5A8"></rect><path d="M2536 1H2537V7H2539V8H2534V15H2533V8H2531V15H2530V8H2525V7H2527V1H2528V7H2536V1Z" fill="black"></path><path d="M2529 2H2535V6H2529V2Z" fill="#FC8E2E"></path><path d="M2526 9H2529V14H2526V9Z" fill="#FC8E2E"></path><path d="M2538 9H2535V14H2538V9Z" fill="#FC8E2E"></path></g><defs><clipPath id="clip0_902_3176"><rect width="2540" height="16" fill="white"></rect></clipPath></defs></svg> 