<?xml version="1.0" encoding="UTF-8"?> <svg xmlns="http://www.w3.org/2000/svg" width="32" height="78" viewBox="0 0 32 78" fill="none"><g clip-path="url(#clip0_0_492)"><rect width="30" height="400" transform="matrix(1 0 0 -1 1 62)" fill="black"></rect><rect width="28" height="400" transform="matrix(1 0 0 -1 2 62)" fill="#41D83D"></rect><path d="M19 62H30L30 -338H19L19 62Z" fill="#009F00"></path><path d="M12 62H18L18 -338H12L12 62Z" fill="#009F00"></path><path d="M9 62H11L11 -338H9L9 62Z" fill="#009F00"></path><path d="M2 62H4L4 -338H2L2 62Z" fill="#009F00"></path><path d="M5 62H6L6 -338H5L5 62Z" fill="#009F00"></path><path d="M29 62H30L30 -338H29L29 62Z" fill="black"></path><path d="M22 62H23L23 -338H22L22 62Z" fill="black"></path><path d="M20 62H21L21 -338H20L20 62Z" fill="black"></path><path d="M24 62H28L28 -338H24L24 62Z" fill="black"></path></g><rect width="32" height="16" transform="matrix(1 0 0 -1 0 78)" fill="black"></rect><rect width="30" height="13" transform="matrix(1 0 0 -1 1 77)" fill="#41D83D"></rect><path d="M20 76H31V64H20V76Z" fill="#009F00"></path><path d="M11 76H19V64H11L11 76Z" fill="#009F00"></path><path d="M8 76H10L10 64H8L8 76Z" fill="#009F00"></path><path d="M1 76H3L3 64H1L1 76Z" fill="#009F00"></path><path d="M4 76H5L5 64H4L4 76Z" fill="#009F00"></path><path d="M30 76H31V64H30V76Z" fill="black"></path><path d="M23 76H24V64H23V76Z" fill="black"></path><path d="M21 76H22V64H21V76Z" fill="black"></path><path d="M25 76H29V64H25V76Z" fill="black"></path><defs><clipPath id="clip0_0_492"><rect width="30" height="62" fill="white" transform="matrix(1 0 0 -1 1 62)"></rect></clipPath></defs></svg> 